<svg width="400" height="400" viewBox="0 0 400 400" fill="none" xmlns="http://www.w3.org/2000/svg">
<g clip-path="url(#clip0_104_6)">
<path d="M400 0H0V400H400V0Z" fill="white" fill-opacity="0.4"/>
<path d="M298.79 151.34C305.25 156.45 303.21 162.24 310.7 162.58C318.19 162.92 323.98 139.43 314.44 132.28C304.9 125.13 280.71 132.71 284.49 143.51C286.87 150.32 293.19 146.92 298.79 151.34Z" fill="#F2F2F3" fill-opacity="0.4"/>
<path d="M329.76 118.32C332.13 119.38 331.49 139.91 324.76 140.19C322.45 140.29 318.64 132.76 319.44 129.19C320.24 125.62 326.7 117 329.76 118.32Z" fill="#F2F2F3" fill-opacity="0.4"/>
<path d="M321.42 112.11C315.89 109.73 302.61 120.36 305.34 124.79C306.55 126.79 315.01 127.9 317.34 125.06C319.67 122.22 324.5 113.44 321.42 112.11Z" fill="#F2F2F3" fill-opacity="0.4"/>
<path d="M333.68 140.71C336.83 143.26 330.85 159.02 324.57 156.54C322.43 155.68 320.23 149.45 322.22 146.91C324.21 144.37 331.13 138.63 333.68 140.71Z" fill="#F2F2F3" fill-opacity="0.4"/>
<path d="M302.36 112.48C298.7 110.73 287.02 122.88 291.96 127.48C293.65 129.05 300.23 128.37 301.67 125.48C303.11 122.59 305.33 113.9 302.36 112.48Z" fill="#F2F2F3" fill-opacity="0.4"/>
<path d="M302 42.58C308.46 47.68 306.42 53.47 313.91 53.81C321.4 54.15 327.19 30.66 317.66 23.51C308.13 16.36 283.92 23.95 287.66 34.75C290.07 41.56 296.39 38.16 302 42.58Z" fill="#F2F2F3" fill-opacity="0.4"/>
<path d="M333 9.55998C335.37 10.56 334.73 31.15 328 31.43C325.7 31.53 321.88 24 322.68 20.43C323.48 16.86 329.9 8.18998 333 9.55998Z" fill="#F2F2F3" fill-opacity="0.4"/>
<path d="M324.62 3.33999C319.09 0.999994 305.82 11.6 308.54 16C309.75 18 318.21 19.11 320.54 16.27C322.87 13.43 327.7 4.66999 324.62 3.33999Z" fill="#F2F2F3" fill-opacity="0.4"/>
<path d="M336.88 31.94C340.03 34.49 334.05 50.25 327.77 47.77C325.63 46.92 323.43 40.68 325.42 38.14C327.41 35.6 334.33 29.87 336.88 31.94Z" fill="#F2F2F3" fill-opacity="0.4"/>
<path d="M305.56 3.70997C301.91 1.95997 290.23 14.12 295.16 18.71C296.85 20.29 303.43 19.6 304.87 16.71C306.31 13.82 308.53 5.12997 305.56 3.70997Z" fill="#F2F2F3" fill-opacity="0.4"/>
<path d="M303.17 258.58C309.63 263.68 307.59 269.47 315.08 269.81C322.57 270.15 328.36 246.66 318.83 239.51C309.3 232.36 285.09 239.95 288.83 250.75C291.25 257.56 297.57 254.16 303.17 258.58Z" fill="#F2F2F3" fill-opacity="0.4"/>
<path d="M334.14 225.56C336.51 226.61 335.87 247.15 329.14 247.43C326.84 247.53 323.02 240 323.82 236.43C324.62 232.86 331.08 224.19 334.14 225.56Z" fill="#F2F2F3" fill-opacity="0.4"/>
<path d="M325.8 219.34C320.27 217 307 227.6 309.72 232C310.93 234 319.39 235.11 321.72 232.27C324.05 229.43 328.88 220.67 325.8 219.34Z" fill="#F2F2F3" fill-opacity="0.4"/>
<path d="M338.06 247.94C341.21 250.49 335.23 266.25 328.95 263.77C326.81 262.92 324.61 256.68 326.6 254.14C328.59 251.6 335.51 245.87 338.06 247.94Z" fill="#F2F2F3" fill-opacity="0.4"/>
<path d="M306.74 219.71C303.08 217.96 291.41 230.12 296.34 234.71C298.03 236.29 304.61 235.6 306.05 232.71C307.49 229.82 309.71 221.13 306.74 219.71Z" fill="#F2F2F3" fill-opacity="0.4"/>
<path d="M298.79 363.55C305.25 368.66 303.21 371.45 310.7 371.79C318.19 372.13 323.98 351.64 314.44 344.49C304.9 337.34 280.71 344.92 284.49 355.72C286.87 362.53 293.19 359.13 298.79 363.55Z" fill="#F2F2F3" fill-opacity="0.4"/>
<path d="M329.76 330.53C332.13 331.58 331.49 352.12 324.76 352.4C322.45 352.5 318.64 344.97 319.44 341.4C320.24 337.83 326.7 329.17 329.76 330.53Z" fill="#F2F2F3" fill-opacity="0.4"/>
<path d="M321.42 324.32C315.89 321.94 302.61 332.57 305.34 337C306.55 339 315.01 340.11 317.34 337.27C319.67 334.43 324.5 325.65 321.42 324.32Z" fill="#F2F2F3" fill-opacity="0.4"/>
<path d="M333.68 352.91C336.83 355.47 330.85 371.23 324.57 368.74C322.43 367.89 320.23 361.66 322.22 359.11C324.21 356.56 331.13 350.84 333.68 352.91Z" fill="#F2F2F3" fill-opacity="0.4"/>
<path d="M302.36 324.69C298.7 322.93 287.02 335.09 291.96 339.69C293.65 341.26 300.23 340.58 301.67 337.69C303.11 334.8 305.33 326.11 302.36 324.69Z" fill="#F2F2F3" fill-opacity="0.4"/>
<path d="M83.83 150.34C90.3 155.45 88.25 161.24 95.74 161.58C103.23 161.92 109.02 138.43 99.49 131.28C89.96 124.13 65.75 131.71 69.49 142.51C71.91 149.32 78.23 145.92 83.83 150.34Z" fill="#F2F2F3" fill-opacity="0.4"/>
<path d="M114.81 117.32C117.18 118.38 116.53 138.91 109.81 139.19C107.5 139.29 103.68 131.76 104.49 128.19C105.3 124.62 111.74 116 114.81 117.32Z" fill="#F2F2F3" fill-opacity="0.4"/>
<path d="M106.47 109.11C100.93 106.73 87.66 119.36 90.38 123.79C91.59 125.79 100.05 126.9 102.38 124.06C104.71 121.22 109.55 110.44 106.47 109.11Z" fill="#F2F2F3" fill-opacity="0.4"/>
<path d="M118.72 139.71C121.87 142.26 115.89 158.02 109.61 155.54C107.47 154.68 105.27 148.45 107.26 145.91C109.25 143.37 116.17 137.63 118.72 139.71Z" fill="#F2F2F3" fill-opacity="0.4"/>
<path d="M87.4 109.48C83.75 107.73 72.07 121.88 77 126.48C78.69 128.05 85.27 127.37 86.71 124.48C88.15 121.59 90.37 110.9 87.4 109.48Z" fill="#F2F2F3" fill-opacity="0.4"/>
<path d="M86.9999 43.58C93.4699 48.68 91.4199 54.47 98.9099 54.81C106.4 55.15 112.19 31.66 102.66 24.51C93.1299 17.36 68.9999 25 72.7299 35.75C75.1099 42.56 81.4299 39.16 86.9999 43.58Z" fill="#F2F2F3" fill-opacity="0.4"/>
<path d="M118 10.56C120.37 11.56 119.72 32.15 113 32.43C110.69 32.53 106.88 25 107.68 21.43C108.48 17.86 114.94 9.18998 118 10.56Z" fill="#F2F2F3" fill-opacity="0.4"/>
<path d="M109.67 4.33999C104.14 1.99999 90.86 12.6 93.58 17C94.79 19 103.25 20.11 105.58 17.27C107.91 14.43 112.75 5.66999 109.67 4.33999Z" fill="#F2F2F3" fill-opacity="0.4"/>
<path d="M121.92 32.94C125.07 35.49 119.09 51.25 112.82 48.77C110.67 47.92 108.47 41.68 110.46 39.14C112.45 36.6 119.37 30.87 121.92 32.94Z" fill="#F2F2F3" fill-opacity="0.4"/>
<path d="M90.6 4.71004C87 3.00004 75.27 15.12 80.2 19.72C81.89 21.3 88.47 20.61 89.91 17.72C91.35 14.83 93.57 6.13004 90.6 4.71004Z" fill="#F2F2F3" fill-opacity="0.4"/>
<path d="M88.2099 257.58C94.6799 262.68 92.6299 268.47 100.12 268.81C107.61 269.15 113.4 245.66 103.87 238.51C94.3399 231.36 70.1299 238.95 73.8699 249.75C76.2899 256.56 82.6099 253.16 88.2099 257.58Z" fill="#F2F2F3" fill-opacity="0.4"/>
<path d="M119.19 224.56C121.56 225.61 120.91 246.15 114.19 246.43C111.88 246.53 108.06 239 108.87 235.43C109.68 231.86 116.12 223.19 119.19 224.56Z" fill="#F2F2F3" fill-opacity="0.4"/>
<path d="M110.85 218.34C105.31 216 92 226.6 94.76 231C95.97 233 104.43 234.11 106.76 231.27C109.09 228.43 113.93 219.67 110.85 218.34Z" fill="#F2F2F3" fill-opacity="0.4"/>
<path d="M123.1 246.94C126.25 249.49 120.27 265.25 114 262.77C111.85 261.92 109.65 255.68 111.64 253.14C113.63 250.6 120.55 244.87 123.1 246.94Z" fill="#F2F2F3" fill-opacity="0.4"/>
<path d="M91.7801 218.71C88.1301 216.96 76.4501 229.12 81.3801 233.71C83.0701 235.29 89.6501 234.6 91.0901 231.71C92.5301 228.82 94.7501 220.13 91.7801 218.71Z" fill="#F2F2F3" fill-opacity="0.4"/>
<path d="M88.2099 354.86C94.6799 359.97 92.6299 363.76 100.12 364.1C107.61 364.44 113.4 342.95 103.87 335.8C94.3399 328.65 70.1299 336.23 73.8699 347.03C76.2899 353.84 82.6099 350.44 88.2099 354.86Z" fill="#F2F2F3" fill-opacity="0.4"/>
<path d="M119.19 321.84C121.56 322.9 120.91 343.43 114.19 343.71C111.88 343.81 108.06 336.28 108.87 332.71C109.68 329.14 116.12 320.48 119.19 321.84Z" fill="#F2F2F3" fill-opacity="0.4"/>
<path d="M110.85 315.63C105.31 313.25 92.0399 323.88 94.7599 328.31C95.9699 330.31 104.43 331.42 106.76 328.58C109.09 325.74 113.93 317 110.85 315.63Z" fill="#F2F2F3" fill-opacity="0.4"/>
<path d="M123.1 344.23C126.25 346.78 120.27 362.54 114 360.05C111.85 359.2 109.65 352.97 111.64 350.43C113.63 347.89 120.55 342.15 123.1 344.23Z" fill="#F2F2F3" fill-opacity="0.4"/>
<path d="M91.7801 316C88.1301 314.24 76.4501 326.4 81.3801 331C83.0701 332.57 89.6501 331.89 91.0901 329C92.5301 326.11 94.7501 317.42 91.7801 316Z" fill="#F2F2F3" fill-opacity="0.4"/>
<path d="M190.23 204.4C196.7 209.51 194.66 215.3 202.15 215.64C209.64 215.98 215.42 192.49 205.89 185.34C196.36 178.19 172.15 185.77 175.89 196.57C178.32 203.38 184.63 200 190.23 204.4Z" fill="#F2F2F3" fill-opacity="0.4"/>
<path d="M221.21 171.38C223.58 172.44 222.94 192.97 216.21 193.26C213.9 193.35 210.09 185.82 210.89 182.26C211.69 178.7 218.15 170 221.21 171.38Z" fill="#F2F2F3" fill-opacity="0.4"/>
<path d="M212.87 165.17C207.34 162.79 194.06 173.43 196.79 177.85C198 179.85 206.45 180.96 208.79 178.12C211.13 175.28 216 166.5 212.87 165.17Z" fill="#F2F2F3" fill-opacity="0.4"/>
<path d="M225.13 193.77C228.27 196.32 222.3 212.08 216.02 209.6C213.87 208.75 211.67 202.51 213.67 199.97C215.67 197.43 222.57 191.7 225.13 193.77Z" fill="#F2F2F3" fill-opacity="0.4"/>
<path d="M193.81 165.54C190.15 163.79 178.47 175.94 183.41 180.54C185.1 182.11 191.67 181.43 193.12 178.54C194.57 175.65 196.77 167 193.81 165.54Z" fill="#F2F2F3" fill-opacity="0.4"/>
<path d="M194.43 94.64C200.9 99.74 198.86 105.53 206.35 105.87C213.84 106.21 219.62 82.72 210.09 75.57C200.56 68.42 176.35 76.01 180.09 86.81C182.52 93.62 188.84 90.22 194.43 94.64Z" fill="#F2F2F3" fill-opacity="0.4"/>
<path d="M225.41 61.62C227.78 62.67 227.14 83.21 220.41 83.49C218.1 83.59 214.29 76.06 215.09 72.49C215.89 68.92 222.35 60.26 225.41 61.62Z" fill="#F2F2F3" fill-opacity="0.4"/>
<path d="M217.07 55.4C211.54 53 198.26 63.66 201 68.09C202.21 70.09 210.66 71.19 213 68.35C215.34 65.51 220.15 56.73 217.07 55.4Z" fill="#F2F2F3" fill-opacity="0.4"/>
<path d="M229.33 84C232.48 86.55 226.5 102.32 220.22 99.83C218.07 98.98 215.88 92.74 217.87 90.2C219.86 87.66 226.77 81.93 229.33 84Z" fill="#F2F2F3" fill-opacity="0.4"/>
<path d="M198 55.77C194.34 54.02 182.66 66.18 187.6 70.77C189.29 72.35 195.86 71.66 197.31 68.77C198.76 65.88 201 57.19 198 55.77Z" fill="#F2F2F3" fill-opacity="0.4"/>
<path d="M194.61 311.64C201.08 316.74 199.04 322.53 206.53 322.87C214.02 323.21 219.8 299.72 210.27 292.57C200.74 285.42 176.53 293.01 180.27 303.81C182.7 310.62 189 307.22 194.61 311.64Z" fill="#F2F2F3" fill-opacity="0.4"/>
<path d="M225.59 278.62C227.96 279.67 227.32 300.21 220.59 300.49C218.28 300.59 214.47 293.06 215.27 289.49C216.07 285.92 222.53 277.26 225.59 278.62Z" fill="#F2F2F3" fill-opacity="0.4"/>
<path d="M217.25 272.4C211.72 270.02 198.44 280.66 201.17 285.09C202.38 287.09 210.83 288.19 213.17 285.35C215.51 282.51 220.33 273.73 217.25 272.4Z" fill="#F2F2F3" fill-opacity="0.4"/>
<path d="M229.51 301C232.66 303.55 226.68 319.32 220.4 316.83C218.25 315.98 216.05 309.74 218.05 307.2C220.05 304.66 227 298.93 229.51 301Z" fill="#F2F2F3" fill-opacity="0.4"/>
<path d="M198.19 272.77C194.53 271.02 182.85 283.18 187.79 287.77C189.48 289.35 196.05 288.66 197.5 285.77C198.95 282.88 201.15 274.19 198.19 272.77Z" fill="#F2F2F3" fill-opacity="0.4"/>
<path d="M203.24 14C207.47 14.2 211.15 7.78 211.84 0H180.55C183.55 1.34 187.55 0.81 191.32 3.76C197.79 8.87 195.75 13.65 203.24 14Z" fill="#F2F2F3" fill-opacity="0.4"/>
<path d="M217.11 9C221 10.5 224.79 5 226.34 0H214.34C213.12 2.83 215.13 8.17 217.11 9Z" fill="#F2F2F3" fill-opacity="0.4"/>
<path d="M222.3 370.74C224.67 371.79 224.03 392.33 217.3 392.61C214.99 392.71 211.18 385.18 211.98 381.61C212.78 378.04 219.24 369.38 222.3 370.74Z" fill="#F2F2F3" fill-opacity="0.4"/>
<path d="M214 364.53C208.47 362.14 195.19 372.78 197.92 377.21C199.13 379.21 207.58 380.31 209.92 377.47C212.26 374.63 217 365.85 214 364.53Z" fill="#F2F2F3" fill-opacity="0.4"/>
<path d="M194.9 364.89C191.24 363.14 179.56 375.3 184.5 379.89C186.19 381.47 192.76 380.78 194.21 377.89C195.66 375 197.86 366.31 194.9 364.89Z" fill="#F2F2F3" fill-opacity="0.4"/>
<path d="M207 384.7C197.47 377.55 173.26 385.13 177 395.93C177.255 396.825 177.704 397.653 178.314 398.357C178.923 399.06 179.68 399.621 180.53 400H211.82C212.37 394 211.13 387.81 207 384.7Z" fill="#F2F2F3" fill-opacity="0.4"/>
<path d="M226.22 393.12C223.66 391.05 216.8 396.71 214.76 399.32C214.6 399.528 214.468 399.757 214.37 400H226.37C227.29 397 227.41 394.09 226.22 393.12Z" fill="#F2F2F3" fill-opacity="0.4"/>
<path d="M375.17 84.81C377.55 91.62 383.87 88.22 389.47 92.64C395.47 97.4 394.14 102.75 400 103.73V71.32C389 68.77 372 75.62 375.17 84.81Z" fill="#F2F2F3" fill-opacity="0.4"/>
<path d="M395 66.09C395.48 66.86 397.08 67.5 400 67.82V58C395.86 60.78 393.78 64.07 395 66.09Z" fill="#F2F2F3" fill-opacity="0.4"/>
<path d="M392.35 66.78C393.83 63.78 396.01 55.19 393.04 53.78C389.39 52.03 377.71 64.19 382.64 68.78C384.33 70.36 390.91 69.67 392.35 66.78Z" fill="#F2F2F3" fill-opacity="0.4"/>
<path d="M5.13 73.5699C3.59365 72.4739 1.84698 71.7078 0 71.3199V103.73C0.456625 103.805 0.917528 103.852 1.38 103.87C8.87 104.21 14.66 80.7199 5.13 73.5699Z" fill="#F2F2F3" fill-opacity="0.4"/>
<path d="M15.4199 81.49C22.1699 81.21 22.8199 60.67 20.4199 59.62C17.3499 58.26 10.8999 66.81 10.0799 70.48C9.2599 74.15 13.1199 81.59 15.4199 81.49Z" fill="#F2F2F3" fill-opacity="0.4"/>
<path d="M8 66.35C10.38 63.44 15.18 54.73 12.11 53.4C9.04 52.07 3.77 54.68 0 58V67.81C2.94 68.33 6.6 68.07 8 66.35Z" fill="#F2F2F3" fill-opacity="0.4"/>
<path d="M24.3601 81.9999C21.8101 79.9299 15.0001 85.5899 12.9001 88.1999C10.8001 90.8099 13.1101 96.9799 15.2501 97.8299C21.5301 100.32 27.5101 84.5499 24.3601 81.9999Z" fill="#F2F2F3" fill-opacity="0.4"/>
<path d="M375.17 195C377.55 201.8 383.87 198.41 389.47 202.83C395.47 207.59 394.14 212.94 400 213.91V181.5C389 179 372 185.8 375.17 195Z" fill="#F2F2F3" fill-opacity="0.4"/>
<path d="M395 176.26C395.48 177.04 397.08 177.68 400 178V168.18C395.86 171 393.78 174.25 395 176.26Z" fill="#F2F2F3" fill-opacity="0.4"/>
<path d="M392.35 177C393.83 174 396.01 165.41 393.04 164C389.39 162.25 377.71 174.4 382.64 179C384.33 180.53 390.91 179.85 392.35 177Z" fill="#F2F2F3" fill-opacity="0.4"/>
<path d="M5.13 183.75C3.59365 182.654 1.84698 181.888 0 181.5V213.9C0.456383 213.979 0.917301 214.029 1.38 214.05C8.87 214.39 14.66 190.9 5.13 183.75Z" fill="#F2F2F3" fill-opacity="0.4"/>
<path d="M15.4199 191.67C22.1699 191.38 22.8199 170.85 20.4199 169.79C17.3499 168.43 10.8999 176.99 10.0799 180.66C9.2599 184.33 13.1199 191.76 15.4199 191.67Z" fill="#F2F2F3" fill-opacity="0.4"/>
<path d="M8 176.53C10.38 173.61 15.18 164.91 12.11 163.58C9.04 162.25 3.77 164.86 0 168.18V178C2.94 178.5 6.6 178.25 8 176.53Z" fill="#F2F2F3" fill-opacity="0.4"/>
<path d="M24.3601 192.18C21.8101 190.11 14.9501 195.77 12.9001 198.38C10.8501 200.99 13.1101 207.16 15.2501 208.01C21.5301 210.49 27.5101 194.73 24.3601 192.18Z" fill="#F2F2F3" fill-opacity="0.4"/>
<path d="M375.17 296.32C377.55 303.13 383.87 299.73 389.47 304.15C395.47 308.91 394.14 314.26 400 315.24V282.83C389 280.28 372 287.13 375.17 296.32Z" fill="#F2F2F3" fill-opacity="0.4"/>
<path d="M395 277.59C395.48 278.37 397.08 279.01 400 279.33V269.51C395.86 272.29 393.78 275.58 395 277.59Z" fill="#F2F2F3" fill-opacity="0.4"/>
<path d="M392.35 278.29C393.83 275.29 396.01 266.7 393.04 265.29C389.39 263.54 377.71 275.69 382.64 280.29C384.33 281.87 390.91 281.18 392.35 278.29Z" fill="#F2F2F3" fill-opacity="0.4"/>
<path d="M5.13 285.08C3.59365 283.984 1.84698 283.218 0 282.83L0 315.24C0.456625 315.315 0.917528 315.362 1.38 315.38C8.87 315.72 14.66 292.23 5.13 285.08Z" fill="#F2F2F3" fill-opacity="0.4"/>
<path d="M15.4199 293C22.1699 292.72 22.8199 272.18 20.4199 271.13C17.3499 269.76 10.8999 278.32 10.0799 281.99C9.2599 285.66 13.1199 293.09 15.4199 293Z" fill="#F2F2F3" fill-opacity="0.4"/>
<path d="M8 277.86C10.38 274.95 15.18 266.24 12.11 264.91C9.04 263.58 3.77 266.19 0 269.51V279.33C2.94 279.84 6.6 279.58 8 277.86Z" fill="#F2F2F3" fill-opacity="0.4"/>
<path d="M24.3601 293.51C21.8101 291.44 14.9501 297.1 12.9001 299.71C10.8501 302.32 13.1101 308.49 15.2501 309.34C21.5301 311.82 27.5101 296.06 24.3601 293.51Z" fill="#F2F2F3" fill-opacity="0.4"/>
<path d="M375.17 379.07C377.55 385.87 383.87 382.48 389.47 386.9C395.47 391.66 394.14 397.01 400 397.98V365.58C389 363 372 369.88 375.17 379.07Z" fill="#F2F2F3" fill-opacity="0.4"/>
<path d="M395 360.34C395.48 361.12 397.08 361.76 400 362.08V352.26C395.86 355 393.78 358.33 395 360.34Z" fill="#F2F2F3" fill-opacity="0.4"/>
<path d="M392.35 361C393.83 358 396.01 349.41 393.04 348C389.39 346.25 377.71 358.4 382.64 363C384.33 364.61 390.91 363.93 392.35 361Z" fill="#F2F2F3" fill-opacity="0.4"/>
<path d="M5.13 367.83C3.59365 366.734 1.84698 365.968 0 365.58V398C0.456383 398.079 0.917301 398.129 1.38 398.15C8.87 398.47 14.66 375 5.13 367.83Z" fill="#F2F2F3" fill-opacity="0.4"/>
<path d="M15.4199 375.75C22.1699 375.46 22.8199 354.93 20.4199 353.87C17.3499 352.51 10.8999 361.07 10.0799 364.74C9.2599 368.41 13.1199 375.84 15.4199 375.75Z" fill="#F2F2F3" fill-opacity="0.4"/>
<path d="M8 360.61C10.38 357.69 15.18 348.99 12.11 347.66C9.04 346.33 3.77 348.94 0 352.26V362.08C2.94 362.58 6.6 362.33 8 360.61Z" fill="#F2F2F3" fill-opacity="0.4"/>
<path d="M24.3601 376.26C21.8101 374.19 14.9501 379.85 12.9001 382.46C10.8501 385.07 13.1101 391.24 15.2501 392.09C21.5301 394.57 27.5101 378.81 24.3601 376.26Z" fill="#F2F2F3" fill-opacity="0.4"/>
</g>
<defs>
<clipPath id="clip0_104_6">
<rect width="400" height="400" fill="white"/>
</clipPath>
</defs>
</svg>
