<svg width="111" height="111" viewBox="0 0 111 111" fill="none" xmlns="http://www.w3.org/2000/svg">
<mask id="mask0_2_1578" style="mask-type:alpha" maskUnits="userSpaceOnUse" x="7" y="2" width="97" height="107">
<path d="M48.5 4.04145C52.8316 1.54059 58.1684 1.54059 62.5 4.04145L96.5644 23.7085C100.896 26.2094 103.564 30.8312 103.564 35.8329V75.1671C103.564 80.1688 100.896 84.7906 96.5644 87.2915L62.5 106.959C58.1684 109.459 52.8316 109.459 48.5 106.959L14.4356 87.2915C10.104 84.7906 7.43559 80.1688 7.43559 75.1671V35.8329C7.43559 30.8312 10.104 26.2094 14.4356 23.7085L48.5 4.04145Z" fill="black"/>
</mask>
<g mask="url(#mask0_2_1578)">
<path d="M48.5 4.04145C52.8316 1.54059 58.1684 1.54059 62.5 4.04145L96.5644 23.7085C100.896 26.2094 103.564 30.8312 103.564 35.8329V75.1671C103.564 80.1688 100.896 84.7906 96.5644 87.2915L62.5 106.959C58.1684 109.459 52.8316 109.459 48.5 106.959L14.4356 87.2915C10.104 84.7906 7.43559 80.1688 7.43559 75.1671V35.8329C7.43559 30.8312 10.104 26.2094 14.4356 23.7085L48.5 4.04145Z" fill="white"/>
<path d="M73.4726 71.7688C74.4962 70.3226 74.9139 68.5334 74.6363 66.7834C75.5908 66.4119 76.4493 65.8302 77.1482 65.0815C77.8472 64.3329 78.3686 63.4365 78.6739 62.4588C78.9791 61.4812 79.0603 60.4473 78.9114 59.434C78.7626 58.4207 78.3875 57.4539 77.814 56.6053C77.2405 55.7567 76.4833 55.0481 75.5986 54.5321C74.7139 54.0161 73.7244 53.7059 72.7034 53.6245C71.6825 53.5431 70.6563 53.6926 69.701 54.062C68.7457 54.4313 67.8858 55.011 67.1851 55.758C67.1805 55.76 67.1755 55.7614 67.1705 55.7619L50.8416 46.3422L50.8367 46.3238C51.1333 45.3435 51.2053 44.309 51.0475 43.297C50.8898 42.2851 50.5061 41.3216 49.9252 40.4781C49.3442 39.6346 48.5808 38.9328 47.6915 38.4246C46.8023 37.9164 45.8101 37.615 44.7884 37.5426C43.7668 37.4702 42.742 37.6288 41.79 38.0066C40.838 38.3843 39.9833 38.9716 39.2892 39.7247C38.5951 40.4779 38.0795 41.3777 37.7807 42.3573C37.4818 43.3369 37.4073 44.3713 37.5628 45.3836C36.6083 45.7552 35.7498 46.3368 35.0509 47.0855C34.3519 47.8341 33.8305 48.7305 33.5253 49.7082C33.22 50.6858 33.1388 51.7197 33.2877 52.733C33.4365 53.7463 33.8116 54.7131 34.3851 55.5617C34.9586 56.4103 35.7158 57.1189 36.6005 57.6349C37.4852 58.1509 38.4747 58.4611 39.4957 58.5425C40.5167 58.6239 41.5428 58.4744 42.4981 58.1051C43.4534 57.7357 44.3133 57.1561 45.014 56.4091C45.0188 56.4074 45.0237 56.4061 45.0286 56.4051L61.3595 65.8322L61.3644 65.8505C60.8831 67.4049 60.9731 69.0801 61.6184 70.5739C62.2636 72.0677 63.4214 73.2817 64.883 73.9969C66.3447 74.7121 68.0137 74.8813 69.5892 74.4741C71.1646 74.0669 72.5426 73.11 73.4745 71.7761L73.4726 71.7688ZM66.2164 71.2468C65.4072 70.8498 64.766 70.1775 64.4078 69.3505C64.0495 68.5235 63.9977 67.5958 64.2616 66.7341C64.4676 66.0766 64.4436 65.3686 64.1935 64.7267C63.9434 64.0847 63.4821 63.5471 62.8856 63.2022L46.545 53.768C45.9476 53.4252 45.2512 53.2961 44.5706 53.4018C43.89 53.5075 43.2656 53.8417 42.8003 54.3495C42.3824 54.7956 41.8629 55.134 41.286 55.3358C40.7091 55.5377 40.0919 55.597 39.4871 55.5088C38.8823 55.4206 38.3078 55.1874 37.8126 54.8292C37.3174 54.4709 36.9161 53.9983 36.6431 53.4514C36.37 52.9046 36.2333 52.2999 36.2445 51.6888C36.2557 51.0777 36.4145 50.4783 36.7073 49.9419C37.0002 49.4054 37.4185 48.9477 37.9265 48.6079C38.4345 48.268 39.0171 48.056 39.6247 47.99C39.8426 47.9668 40.0528 47.8966 40.241 47.7843C40.4291 47.6721 40.5907 47.5204 40.7146 47.3397C40.8384 47.159 40.9217 46.9536 40.9586 46.7376C40.9955 46.5217 40.9851 46.3003 40.9282 46.0887C40.9074 46.0135 40.8811 45.9399 40.8496 45.8685C40.6038 45.3097 40.4966 44.6997 40.5372 44.0906C40.5777 43.4815 40.7648 42.8912 41.0825 42.3699C41.4003 41.8486 41.8392 41.4117 42.362 41.0965C42.8848 40.7813 43.476 40.597 44.0853 40.5593C44.6946 40.5216 45.304 40.6317 45.8617 40.8801C46.4193 41.1286 46.9087 41.508 47.2882 41.9862C47.6677 42.4644 47.9261 43.0272 48.0413 43.6267C48.1566 44.2262 48.1254 44.8447 47.9503 45.4295C47.7443 46.087 47.7683 46.795 48.0185 47.4369C48.2686 48.0789 48.7298 48.6165 49.3263 48.9613L65.6669 58.3956C66.2634 58.7367 66.958 58.8652 67.637 58.7599C68.316 58.6546 68.9392 58.3218 69.4043 57.816C69.8222 57.37 70.3417 57.0316 70.9186 56.8297C71.4955 56.6279 72.1127 56.5685 72.7175 56.6567C73.3223 56.745 73.8968 56.9781 74.392 57.3364C74.8872 57.6946 75.2885 58.1673 75.5615 58.7141C75.8346 59.2609 75.9713 59.8657 75.9601 60.4768C75.9489 61.0879 75.7901 61.6872 75.4973 62.2237C75.2044 62.7601 74.7861 63.2178 74.2781 63.5577C73.7701 63.8976 73.1875 64.1096 72.5799 64.1756C72.3425 64.201 72.1144 64.2821 71.9143 64.4124C71.7142 64.5426 71.5476 64.7183 71.4283 64.925C71.3089 65.1318 71.24 65.3639 71.2273 65.6023C71.2146 65.8407 71.2583 66.0788 71.355 66.2971C71.6754 67.0103 71.7674 67.8051 71.6184 68.5726C71.4694 69.3401 71.0867 70.0428 70.5228 70.5843C69.9588 71.1259 69.2412 71.4797 68.4683 71.5975C67.6953 71.7152 66.9049 71.591 66.2053 71.2419L66.2164 71.2468Z" fill="#126E82"/>
<path d="M22.26 82.4C21.54 82.4 20.94 82.16 20.46 81.68C20.02 81.24 19.8 80.66 19.8 79.94V31.46C19.8 30.74 20.02 30.16 20.46 29.72C20.94 29.24 21.54 29 22.26 29H35.28C35.96 29 36.54 29.24 37.02 29.72C37.5 30.16 37.74 30.74 37.74 31.46C37.74 32.14 37.5 32.72 37.02 33.2C36.54 33.64 35.96 33.86 35.28 33.86H25.2L25.56 33.38V78.26L24.96 77.54H35.28C35.96 77.54 36.54 77.76 37.02 78.2C37.5 78.68 37.74 79.28 37.74 80C37.74 80.68 37.5 81.24 37.02 81.68C36.54 82.16 35.96 82.4 35.28 82.4H22.26Z" fill="#126E82"/>
<path d="M88.98 29C89.66 29 90.24 29.24 90.72 29.72C91.2 30.16 91.44 30.74 91.44 31.46V79.94C91.44 80.66 91.2 81.24 90.72 81.68C90.24 82.16 89.66 82.4 88.98 82.4H75.96C75.24 82.4 74.64 82.16 74.16 81.68C73.72 81.24 73.5 80.66 73.5 79.94C73.5 79.26 73.72 78.68 74.16 78.2C74.64 77.76 75.24 77.54 75.96 77.54H86.04L85.62 78.02V33.14L86.28 33.86H75.96C75.24 33.86 74.64 33.64 74.16 33.2C73.72 32.72 73.5 32.12 73.5 31.4C73.5 30.72 73.72 30.16 74.16 29.72C74.64 29.24 75.24 29 75.96 29H88.98Z" fill="#126E82"/>
</g>
</svg>
