<svg width="111" height="111" viewBox="0 0 111 111" fill="none" xmlns="http://www.w3.org/2000/svg">
<mask id="mask0_1_44" style="mask-type:alpha" maskUnits="userSpaceOnUse" x="7" y="2" width="97" height="107">
<path d="M48.5 4.04148C52.8316 1.54062 58.1684 1.54062 62.5 4.04148L96.5644 23.7086C100.896 26.2094 103.564 30.8312 103.564 35.8329V75.1671C103.564 80.1688 100.896 84.7906 96.5644 87.2915L62.5 106.959C58.1684 109.459 52.8316 109.459 48.5 106.959L14.4356 87.2915C10.104 84.7906 7.43559 80.1688 7.43559 75.1671V35.8329C7.43559 30.8312 10.104 26.2094 14.4356 23.7086L48.5 4.04148Z" fill="black"/>
</mask>
<g mask="url(#mask0_1_44)">
<path d="M48.5 4.04148C52.8316 1.54062 58.1684 1.54062 62.5 4.04148L96.5644 23.7086C100.896 26.2094 103.564 30.8312 103.564 35.8329V75.1671C103.564 80.1688 100.896 84.7906 96.5644 87.2915L62.5 106.959C58.1684 109.459 52.8316 109.459 48.5 106.959L14.4356 87.2915C10.104 84.7906 7.43559 80.1688 7.43559 75.1671V35.8329C7.43559 30.8312 10.104 26.2094 14.4356 23.7086L48.5 4.04148Z" fill="#126E82"/>
<path d="M73.4725 71.7689C74.4962 70.3226 74.9139 68.5335 74.6363 66.7835C75.5907 66.4119 76.4493 65.8302 77.1482 65.0816C77.8472 64.333 78.3686 63.4366 78.6738 62.4589C78.9791 61.4812 79.0603 60.4474 78.9114 59.4341C78.7626 58.4208 78.3875 57.4539 77.814 56.6054C77.2405 55.7568 76.4833 55.0482 75.5986 54.5322C74.7139 54.0162 73.7244 53.706 72.7034 53.6246C71.6824 53.5432 70.6562 53.6927 69.701 54.062C68.7457 54.4314 67.8858 55.011 67.1851 55.758C67.1804 55.7601 67.1755 55.7614 67.1704 55.7619L50.8416 46.3422L50.8367 46.3239C51.1333 45.3436 51.2053 44.3091 51.0475 43.2971C50.8897 42.2851 50.5061 41.3217 49.9251 40.4782C49.3442 39.6347 48.5808 38.9328 47.6915 38.4247C46.8023 37.9165 45.81 37.615 44.7884 37.5427C43.7668 37.4703 42.7419 37.6289 41.7899 38.0066C40.838 38.3844 39.9832 38.9716 39.2892 39.7248C38.5951 40.478 38.0795 41.3777 37.7806 42.3574C37.4818 43.337 37.4073 44.3713 37.5627 45.3837C36.6083 45.7552 35.7498 46.3369 35.0508 47.0855C34.3519 47.8342 33.8305 48.7306 33.5252 49.7082C33.22 50.6859 33.1388 51.7197 33.2876 52.7331C33.4365 53.7464 33.8116 54.7132 34.3851 55.5618C34.9586 56.4104 35.7157 57.119 36.6005 57.635C37.4852 58.151 38.4747 58.4612 39.4957 58.5426C40.5166 58.624 41.5428 58.4745 42.4981 58.1051C43.4534 57.7358 44.3133 57.1561 45.014 56.4091C45.0187 56.4075 45.0236 56.4061 45.0286 56.4052L61.3594 65.8323L61.3643 65.8506C60.883 67.4049 60.9731 69.0802 61.6183 70.574C62.2636 72.0678 63.4214 73.2818 64.883 73.997C66.3446 74.7122 68.0137 74.8814 69.5891 74.4742C71.1645 74.067 72.5425 73.1101 73.4745 71.7762L73.4725 71.7689ZM66.2164 71.2469C65.4072 70.8499 64.766 70.1776 64.4078 69.3506C64.0495 68.5235 63.9977 67.5959 64.2616 66.7341C64.4676 66.0767 64.4436 65.3687 64.1934 64.7267C63.9433 64.0848 63.4821 63.5471 62.8856 63.2023L46.545 53.7681C45.9475 53.4253 45.2512 53.2961 44.5706 53.4018C43.89 53.5075 43.2656 53.8418 42.8003 54.3496C42.3824 54.7957 41.8629 55.134 41.286 55.3359C40.7091 55.5377 40.0919 55.5971 39.4871 55.5089C38.8823 55.4207 38.3078 55.1875 37.8126 54.8292C37.3174 54.471 36.9161 53.9983 36.6431 53.4515C36.37 52.9047 36.2333 52.2999 36.2444 51.6888C36.2556 51.0777 36.4144 50.4784 36.7073 49.9419C37.0002 49.4055 37.4185 48.9478 37.9265 48.6079C38.4344 48.268 39.0171 48.0561 39.6247 47.99C39.8426 47.9668 40.0528 47.8967 40.2409 47.7844C40.4291 47.6721 40.5906 47.5204 40.7145 47.3398C40.8384 47.1591 40.9217 46.9537 40.9585 46.7377C40.9954 46.5218 40.9851 46.3004 40.9282 46.0888C40.9074 46.0136 40.8811 45.94 40.8496 45.8685C40.6038 45.3097 40.4966 44.6998 40.5372 44.0907C40.5777 43.4815 40.7648 42.8912 41.0825 42.3699C41.4002 41.8486 41.8392 41.4118 42.362 41.0966C42.8848 40.7813 43.476 40.597 44.0853 40.5594C44.6946 40.5217 45.304 40.6318 45.8616 40.8802C46.4193 41.1286 46.9087 41.5081 47.2882 41.9863C47.6677 42.4645 47.926 43.0273 48.0413 43.6268C48.1566 44.2263 48.1253 44.8448 47.9503 45.4296C47.7443 46.087 47.7683 46.795 48.0184 47.437C48.2685 48.079 48.7298 48.6166 49.3263 48.9614L65.6669 58.3957C66.2634 58.7368 66.958 58.8652 67.637 58.7599C68.316 58.6546 68.9391 58.3218 69.4043 57.8161C69.8221 57.37 70.3417 57.0316 70.9186 56.8298C71.4955 56.6279 72.1127 56.5686 72.7175 56.6568C73.3223 56.745 73.8968 56.9782 74.392 57.3364C74.8872 57.6947 75.2884 58.1673 75.5615 58.7142C75.8345 59.261 75.9713 59.8657 75.9601 60.4768C75.9489 61.0879 75.7901 61.6873 75.4972 62.2237C75.2044 62.7602 74.7861 63.2179 74.2781 63.5578C73.7701 63.8976 73.1875 64.1096 72.5798 64.1756C72.3424 64.2011 72.1144 64.2822 71.9143 64.4124C71.7141 64.5427 71.5476 64.7183 71.4282 64.9251C71.3089 65.1319 71.24 65.3639 71.2273 65.6023C71.2145 65.8408 71.2583 66.0788 71.355 66.2971C71.6754 67.0103 71.7674 67.8051 71.6184 68.5727C71.4694 69.3402 71.0867 70.0429 70.5228 70.5844C69.9588 71.1259 69.2412 71.4798 68.4682 71.5975C67.6953 71.7153 66.9049 71.5911 66.2053 71.242L66.2164 71.2469Z" fill="white"/>
<path d="M22.26 82.4C21.54 82.4 20.94 82.16 20.46 81.68C20.02 81.24 19.8 80.66 19.8 79.94V31.46C19.8 30.74 20.02 30.16 20.46 29.72C20.94 29.24 21.54 29 22.26 29H35.28C35.96 29 36.54 29.24 37.02 29.72C37.5 30.16 37.74 30.74 37.74 31.46C37.74 32.14 37.5 32.72 37.02 33.2C36.54 33.64 35.96 33.86 35.28 33.86H25.2L25.56 33.38V78.26L24.96 77.54H35.28C35.96 77.54 36.54 77.76 37.02 78.2C37.5 78.68 37.74 79.28 37.74 80C37.74 80.68 37.5 81.24 37.02 81.68C36.54 82.16 35.96 82.4 35.28 82.4H22.26Z" fill="white"/>
<path d="M88.98 29C89.66 29 90.24 29.24 90.72 29.72C91.2 30.16 91.44 30.74 91.44 31.46V79.94C91.44 80.66 91.2 81.24 90.72 81.68C90.24 82.16 89.66 82.4 88.98 82.4H75.96C75.24 82.4 74.64 82.16 74.16 81.68C73.72 81.24 73.5 80.66 73.5 79.94C73.5 79.26 73.72 78.68 74.16 78.2C74.64 77.76 75.24 77.54 75.96 77.54H86.04L85.62 78.02V33.14L86.28 33.86H75.96C75.24 33.86 74.64 33.64 74.16 33.2C73.72 32.72 73.5 32.12 73.5 31.4C73.5 30.72 73.72 30.16 74.16 29.72C74.64 29.24 75.24 29 75.96 29H88.98Z" fill="white"/>
</g>
</svg>
