<svg xmlns="http://www.w3.org/2000/svg" viewBox="0 0 400 400"><defs><style>.cls-1{fill:#fff;}.cls-2{fill:#f2f2f3;}</style></defs><g id="Layer_2" data-name="Layer 2"><g id="Layer_2-2" data-name="Layer 2"><rect class="cls-1" width="400" height="400"/><path class="cls-2" d="M298.79,151.34c6.46,5.11,4.42,10.9,11.91,11.24s13.28-23.15,3.74-30.3-33.73.43-29.95,11.23C286.87,150.32,293.19,146.92,298.79,151.34Z"/><path class="cls-2" d="M329.76,118.32c2.37,1.06,1.73,21.59-5,21.87-2.31.1-6.12-7.43-5.32-11S326.7,117,329.76,118.32Z"/><path class="cls-2" d="M321.42,112.11c-5.53-2.38-18.81,8.25-16.08,12.68,1.21,2,9.67,3.11,12,.27S324.5,113.44,321.42,112.11Z"/><path class="cls-2" d="M333.68,140.71c3.15,2.55-2.83,18.31-9.11,15.83-2.14-.86-4.34-7.09-2.35-9.63S331.13,138.63,333.68,140.71Z"/><path class="cls-2" d="M302.36,112.48c-3.66-1.75-15.34,10.4-10.4,15,1.69,1.57,8.27.89,9.71-2S305.33,113.9,302.36,112.48Z"/><path class="cls-2" d="M302,42.58c6.46,5.1,4.42,10.89,11.91,11.23s13.28-23.15,3.75-30.3-33.74.44-30,11.24C290.07,41.56,296.39,38.16,302,42.58Z"/><path class="cls-2" d="M333,9.56c2.37,1,1.73,21.59-5,21.87-2.3.1-6.12-7.43-5.32-11S329.9,8.19,333,9.56Z"/><path class="cls-2" d="M324.62,3.34C319.09,1,305.82,11.6,308.54,16c1.21,2,9.67,3.11,12,.27S327.7,4.67,324.62,3.34Z"/><path class="cls-2" d="M336.88,31.94c3.15,2.55-2.83,18.31-9.11,15.83-2.14-.85-4.34-7.09-2.35-9.63S334.33,29.87,336.88,31.94Z"/><path class="cls-2" d="M305.56,3.71c-3.65-1.75-15.33,10.41-10.4,15,1.69,1.58,8.27.89,9.71-2S308.53,5.13,305.56,3.71Z"/><path class="cls-2" d="M303.17,258.58c6.46,5.1,4.42,10.89,11.91,11.23s13.28-23.15,3.75-30.3-33.74.44-30,11.24C291.25,257.56,297.57,254.16,303.17,258.58Z"/><path class="cls-2" d="M334.14,225.56c2.37,1.05,1.73,21.59-5,21.87-2.3.1-6.12-7.43-5.32-11S331.08,224.19,334.14,225.56Z"/><path class="cls-2" d="M325.8,219.34C320.27,217,307,227.6,309.72,232c1.21,2,9.67,3.11,12,.27S328.88,220.67,325.8,219.34Z"/><path class="cls-2" d="M338.06,247.94c3.15,2.55-2.83,18.31-9.11,15.83-2.14-.85-4.34-7.09-2.35-9.63S335.51,245.87,338.06,247.94Z"/><path class="cls-2" d="M306.74,219.71c-3.66-1.75-15.33,10.41-10.4,15,1.69,1.58,8.27.89,9.71-2S309.71,221.13,306.74,219.71Z"/><path class="cls-2" d="M298.79,363.55c6.46,5.11,4.42,7.9,11.91,8.24s13.28-20.15,3.74-27.3-33.73.43-29.95,11.23C286.87,362.53,293.19,359.13,298.79,363.55Z"/><path class="cls-2" d="M329.76,330.53c2.37,1.05,1.73,21.59-5,21.87-2.31.1-6.12-7.43-5.32-11S326.7,329.17,329.76,330.53Z"/><path class="cls-2" d="M321.42,324.32c-5.53-2.38-18.81,8.25-16.08,12.68,1.21,2,9.67,3.11,12,.27S324.5,325.65,321.42,324.32Z"/><path class="cls-2" d="M333.68,352.91c3.15,2.56-2.83,18.32-9.11,15.83-2.14-.85-4.34-7.08-2.35-9.63S331.13,350.84,333.68,352.91Z"/><path class="cls-2" d="M302.36,324.69c-3.66-1.76-15.34,10.4-10.4,15,1.69,1.57,8.27.89,9.71-2S305.33,326.11,302.36,324.69Z"/><path class="cls-2" d="M83.83,150.34c6.47,5.11,4.42,10.9,11.91,11.24s13.28-23.15,3.75-30.3-33.74.43-30,11.23C71.91,149.32,78.23,145.92,83.83,150.34Z"/><path class="cls-2" d="M114.81,117.32c2.37,1.06,1.72,21.59-5,21.87-2.31.1-6.13-7.43-5.32-11S111.74,116,114.81,117.32Z"/><path class="cls-2" d="M106.47,109.11c-5.54-2.38-18.81,10.25-16.09,14.68,1.21,2,9.67,3.11,12,.27S109.55,110.44,106.47,109.11Z"/><path class="cls-2" d="M118.72,139.71c3.15,2.55-2.83,18.31-9.11,15.83-2.14-.86-4.34-7.09-2.35-9.63S116.17,137.63,118.72,139.71Z"/><path class="cls-2" d="M87.4,109.48c-3.65-1.75-15.33,12.4-10.4,17,1.69,1.57,8.27.89,9.71-2S90.37,110.9,87.4,109.48Z"/><path class="cls-2" d="M87,43.58c6.47,5.1,4.42,10.89,11.91,11.23s13.28-23.15,3.75-30.3S69,25,72.73,35.75C75.11,42.56,81.43,39.16,87,43.58Z"/><path class="cls-2" d="M118,10.56c2.37,1,1.72,21.59-5,21.87-2.31.1-6.12-7.43-5.32-11S114.94,9.19,118,10.56Z"/><path class="cls-2" d="M109.67,4.34C104.14,2,90.86,12.6,93.58,17c1.21,2,9.67,3.11,12,.27S112.75,5.67,109.67,4.34Z"/><path class="cls-2" d="M121.92,32.94c3.15,2.55-2.83,18.31-9.1,15.83-2.15-.85-4.35-7.09-2.36-9.63S119.37,30.87,121.92,32.94Z"/><path class="cls-2" d="M90.6,4.71C87,3,75.27,15.12,80.2,19.72c1.69,1.58,8.27.89,9.71-2S93.57,6.13,90.6,4.71Z"/><path class="cls-2" d="M88.21,257.58c6.47,5.1,4.42,10.89,11.91,11.23s13.28-23.15,3.75-30.3-33.74.44-30,11.24C76.29,256.56,82.61,253.16,88.21,257.58Z"/><path class="cls-2" d="M119.19,224.56c2.37,1.05,1.72,21.59-5,21.87-2.31.1-6.13-7.43-5.32-11S116.12,223.19,119.19,224.56Z"/><path class="cls-2" d="M110.85,218.34C105.31,216,92,226.6,94.76,231c1.21,2,9.67,3.11,12,.27S113.93,219.67,110.85,218.34Z"/><path class="cls-2" d="M123.1,246.94c3.15,2.55-2.83,18.31-9.1,15.83-2.15-.85-4.35-7.09-2.36-9.63S120.55,244.87,123.1,246.94Z"/><path class="cls-2" d="M91.78,218.71c-3.65-1.75-15.33,10.41-10.4,15,1.69,1.58,8.27.89,9.71-2S94.75,220.13,91.78,218.71Z"/><path class="cls-2" d="M88.21,354.86c6.47,5.11,4.42,8.9,11.91,9.24s13.28-21.15,3.75-28.3-33.74.43-30,11.23C76.29,353.84,82.61,350.44,88.21,354.86Z"/><path class="cls-2" d="M119.19,321.84c2.37,1.06,1.72,21.59-5,21.87-2.31.1-6.13-7.43-5.32-11S116.12,320.48,119.19,321.84Z"/><path class="cls-2" d="M110.85,315.63c-5.54-2.38-18.81,8.25-16.09,12.68,1.21,2,9.67,3.11,12,.27S113.93,317,110.85,315.63Z"/><path class="cls-2" d="M123.1,344.23c3.15,2.55-2.83,18.31-9.1,15.82-2.15-.85-4.35-7.08-2.36-9.62S120.55,342.15,123.1,344.23Z"/><path class="cls-2" d="M91.78,316c-3.65-1.76-15.33,10.4-10.4,15,1.69,1.57,8.27.89,9.71-2S94.75,317.42,91.78,316Z"/><path class="cls-2" d="M190.23,204.4c6.47,5.11,4.43,10.9,11.92,11.24s13.27-23.15,3.74-30.3-33.74.43-30,11.23C178.32,203.38,184.63,200,190.23,204.4Z"/><path class="cls-2" d="M221.21,171.38c2.37,1.06,1.73,21.59-5,21.88-2.31.09-6.12-7.44-5.32-11S218.15,170,221.21,171.38Z"/><path class="cls-2" d="M212.87,165.17c-5.53-2.38-18.81,8.26-16.08,12.68,1.21,2,9.66,3.11,12,.27S216,166.5,212.87,165.17Z"/><path class="cls-2" d="M225.13,193.77c3.14,2.55-2.83,18.31-9.11,15.83-2.15-.85-4.35-7.09-2.35-9.63S222.57,191.7,225.13,193.77Z"/><path class="cls-2" d="M193.81,165.54c-3.66-1.75-15.34,10.4-10.4,15,1.69,1.57,8.26.89,9.71-2S196.77,167,193.81,165.54Z"/><path class="cls-2" d="M194.43,94.64c6.47,5.1,4.43,10.89,11.92,11.23s13.27-23.15,3.74-30.3-33.74.44-30,11.24C182.52,93.62,188.84,90.22,194.43,94.64Z"/><path class="cls-2" d="M225.41,61.62c2.37,1.05,1.73,21.59-5,21.87-2.31.1-6.12-7.43-5.32-11S222.35,60.26,225.41,61.62Z"/><path class="cls-2" d="M217.07,55.4C211.54,53,198.26,63.66,201,68.09c1.21,2,9.66,3.1,12,.26S220.15,56.73,217.07,55.4Z"/><path class="cls-2" d="M229.33,84c3.15,2.55-2.83,18.32-9.11,15.83-2.15-.85-4.34-7.09-2.35-9.63S226.77,81.93,229.33,84Z"/><path class="cls-2" d="M198,55.77c-3.66-1.75-15.34,10.41-10.4,15,1.69,1.58,8.26.89,9.71-2S201,57.19,198,55.77Z"/><path class="cls-2" d="M194.61,311.64c6.47,5.1,4.43,10.89,11.92,11.23s13.27-23.15,3.74-30.3-33.74.44-30,11.24C182.7,310.62,189,307.22,194.61,311.64Z"/><path class="cls-2" d="M225.59,278.62c2.37,1.05,1.73,21.59-5,21.87-2.31.1-6.12-7.43-5.32-11S222.53,277.26,225.59,278.62Z"/><path class="cls-2" d="M217.25,272.4c-5.53-2.38-18.81,8.26-16.08,12.69,1.21,2,9.66,3.1,12,.26S220.33,273.73,217.25,272.4Z"/><path class="cls-2" d="M229.51,301c3.15,2.55-2.83,18.32-9.11,15.83-2.15-.85-4.35-7.09-2.35-9.63S227,298.93,229.51,301Z"/><path class="cls-2" d="M198.19,272.77c-3.66-1.75-15.34,10.41-10.4,15,1.69,1.58,8.26.89,9.71-2S201.15,274.19,198.19,272.77Z"/><path class="cls-2" d="M203.24,14c4.23.2,7.91-6.22,8.6-14H180.55c3,1.34,7,.81,10.77,3.76C197.79,8.87,195.75,13.65,203.24,14Z"/><path class="cls-2" d="M217.11,9C221,10.5,224.79,5,226.34,0h-12C213.12,2.83,215.13,8.17,217.11,9Z"/><path class="cls-2" d="M222.3,370.74c2.37,1.05,1.73,21.59-5,21.87-2.31.1-6.12-7.43-5.32-11S219.24,369.38,222.3,370.74Z"/><path class="cls-2" d="M214,364.53c-5.53-2.39-18.81,8.25-16.08,12.68,1.21,2,9.66,3.1,12,.26S217,365.85,214,364.53Z"/><path class="cls-2" d="M194.9,364.89c-3.66-1.75-15.34,10.41-10.4,15,1.69,1.58,8.26.89,9.71-2S197.86,366.31,194.9,364.89Z"/><path class="cls-2" d="M207,384.7c-9.53-7.15-33.74.43-30,11.23a6.37,6.37,0,0,0,3.53,4.07h31.29C212.37,394,211.13,387.81,207,384.7Z"/><path class="cls-2" d="M226.22,393.12c-2.56-2.07-9.42,3.59-11.46,6.2a2.86,2.86,0,0,0-.39.68h12C227.29,397,227.41,394.09,226.22,393.12Z"/><path class="cls-2" d="M375.17,84.81c2.38,6.81,8.7,3.41,14.3,7.83,6,4.76,4.67,10.11,10.53,11.09V71.32C389,68.77,372,75.62,375.17,84.81Z"/><path class="cls-2" d="M395,66.09c.48.77,2.08,1.41,5,1.73V58C395.86,60.78,393.78,64.07,395,66.09Z"/><path class="cls-2" d="M392.35,66.78c1.48-3,3.66-11.59.69-13-3.65-1.75-15.33,10.41-10.4,15C384.33,70.36,390.91,69.67,392.35,66.78Z"/><path class="cls-2" d="M5.13,73.57A13.67,13.67,0,0,0,0,71.32v32.41a11.08,11.08,0,0,0,1.38.14C8.87,104.21,14.66,80.72,5.13,73.57Z"/><path class="cls-2" d="M15.42,81.49c6.75-.28,7.4-20.82,5-21.87-3.07-1.36-9.52,7.19-10.34,10.86S13.12,81.59,15.42,81.49Z"/><path class="cls-2" d="M8,66.35c2.38-2.91,7.18-11.62,4.11-12.95S3.77,54.68,0,58v9.81C2.94,68.33,6.6,68.07,8,66.35Z"/><path class="cls-2" d="M24.36,82C21.81,79.93,15,85.59,12.9,88.2s.21,8.78,2.35,9.63C21.53,100.32,27.51,84.55,24.36,82Z"/><path class="cls-2" d="M375.17,195c2.38,6.8,8.7,3.41,14.3,7.83,6,4.76,4.67,10.11,10.53,11.08V181.5C389,179,372,185.8,375.17,195Z"/><path class="cls-2" d="M395,176.26c.48.78,2.08,1.42,5,1.74v-9.82C395.86,171,393.78,174.25,395,176.26Z"/><path class="cls-2" d="M392.35,177c1.48-3,3.66-11.59.69-13-3.65-1.75-15.33,10.4-10.4,15C384.33,180.53,390.91,179.85,392.35,177Z"/><path class="cls-2" d="M5.13,183.75A13.67,13.67,0,0,0,0,181.5v32.4a11,11,0,0,0,1.38.15C8.87,214.39,14.66,190.9,5.13,183.75Z"/><path class="cls-2" d="M15.42,191.67c6.75-.29,7.4-20.82,5-21.88-3.07-1.36-9.52,7.2-10.34,10.87S13.12,191.76,15.42,191.67Z"/><path class="cls-2" d="M8,176.53c2.38-2.92,7.18-11.62,4.11-12.95S3.77,164.86,0,168.18V178C2.94,178.5,6.6,178.25,8,176.53Z"/><path class="cls-2" d="M24.36,192.18c-2.55-2.07-9.41,3.59-11.46,6.2s.21,8.78,2.35,9.63C21.53,210.49,27.51,194.73,24.36,192.18Z"/><path class="cls-2" d="M375.17,296.32c2.38,6.81,8.7,3.41,14.3,7.83,6,4.76,4.67,10.11,10.53,11.09V282.83C389,280.28,372,287.13,375.17,296.32Z"/><path class="cls-2" d="M395,277.59c.48.78,2.08,1.42,5,1.74v-9.82C395.86,272.29,393.78,275.58,395,277.59Z"/><path class="cls-2" d="M392.35,278.29c1.48-3,3.66-11.59.69-13-3.65-1.75-15.33,10.4-10.4,15C384.33,281.87,390.91,281.18,392.35,278.29Z"/><path class="cls-2" d="M5.13,285.08A13.67,13.67,0,0,0,0,282.83v32.41a11.08,11.08,0,0,0,1.38.14C8.87,315.72,14.66,292.23,5.13,285.08Z"/><path class="cls-2" d="M15.42,293c6.75-.28,7.4-20.82,5-21.87-3.07-1.37-9.52,7.19-10.34,10.86S13.12,293.09,15.42,293Z"/><path class="cls-2" d="M8,277.86c2.38-2.91,7.18-11.62,4.11-12.95S3.77,266.19,0,269.51v9.82C2.94,279.84,6.6,279.58,8,277.86Z"/><path class="cls-2" d="M24.36,293.51c-2.55-2.07-9.41,3.59-11.46,6.2s.21,8.78,2.35,9.63C21.53,311.82,27.51,296.06,24.36,293.51Z"/><path class="cls-2" d="M375.17,379.07c2.38,6.8,8.7,3.41,14.3,7.83,6,4.76,4.67,10.11,10.53,11.08v-32.4C389,363,372,369.88,375.17,379.07Z"/><path class="cls-2" d="M395,360.34c.48.78,2.08,1.42,5,1.74v-9.82C395.86,355,393.78,358.33,395,360.34Z"/><path class="cls-2" d="M392.35,361c1.48-3,3.66-11.59.69-13-3.65-1.75-15.33,10.4-10.4,15C384.33,364.61,390.91,363.93,392.35,361Z"/><path class="cls-2" d="M5.13,367.83A13.67,13.67,0,0,0,0,365.58V398a11,11,0,0,0,1.38.15C8.87,398.47,14.66,375,5.13,367.83Z"/><path class="cls-2" d="M15.42,375.75c6.75-.29,7.4-20.82,5-21.88-3.07-1.36-9.52,7.2-10.34,10.87S13.12,375.84,15.42,375.75Z"/><path class="cls-2" d="M8,360.61c2.38-2.92,7.18-11.62,4.11-12.95S3.77,348.94,0,352.26v9.82C2.94,362.58,6.6,362.33,8,360.61Z"/><path class="cls-2" d="M24.36,376.26c-2.55-2.07-9.41,3.59-11.46,6.2s.21,8.78,2.35,9.63C21.53,394.57,27.51,378.81,24.36,376.26Z"/></g></g></svg>
