<svg width="26" height="49" viewBox="0 0 26 49" fill="none" xmlns="http://www.w3.org/2000/svg">
<path d="M10.3466 48.4993V42.7344C7.97806 42.1981 5.93306 41.1702 4.21162 39.6508C2.49017 38.1313 1.22813 35.9862 0.425507 33.2155L5.38606 31.2044C6.05641 33.3495 7.0512 34.9807 8.37044 36.098C9.68968 37.2152 11.421 37.7738 13.5643 37.7738C15.3965 37.7738 16.95 37.36 18.2245 36.5323C19.4991 35.7047 20.1354 34.4203 20.1337 32.6792C20.1337 31.1151 19.6421 29.8754 18.6589 28.9601C17.6757 28.0449 15.3965 27.0054 11.8214 25.8417C7.97806 24.6351 5.34137 23.1934 3.9113 21.5166C2.48123 19.8399 1.7662 17.7957 1.7662 15.3843C1.7662 12.4795 2.70468 10.2226 4.58165 8.61381C6.45861 7.00498 8.38027 6.08884 10.3466 5.8654V0.234497H15.7094V5.8654C17.9439 6.22291 19.7878 7.03895 21.2411 8.31349C22.6944 9.58804 23.7553 11.1406 24.4239 12.9711L19.4633 15.1162C18.927 13.6861 18.1673 12.6135 17.1841 11.8985C16.201 11.1835 14.8603 10.8259 13.1621 10.8259C11.1957 10.8259 9.69861 11.2621 8.67075 12.1345C7.64289 13.0068 7.12896 14.0901 7.12896 15.3843C7.12896 16.8591 7.7993 18.021 9.13999 18.8701C10.4807 19.7192 12.8045 20.613 16.1116 21.5515C19.1952 22.4453 21.5306 23.8646 23.118 25.8095C24.7054 27.7544 25.4982 29.9996 25.4964 32.5451C25.4964 35.7181 24.5579 38.1313 22.681 39.7849C20.804 41.4384 18.4801 42.4662 15.7094 42.8684V48.4993H10.3466Z" fill="#F9A04F"/>
</svg>
