<svg width="44" height="44" viewBox="0 0 44 44" fill="#ffffff" xmlns="http://www.w3.org/2000/svg">
<path d="M18.6438 25.3562C19.6197 26.2845 19.6197 27.8078 18.6438 28.7361C17.7155 29.6644 16.1922 29.6644 15.2639 28.7361C13.0345 26.5034 11.7823 23.4771 11.7823 20.3219C11.7823 17.1667 13.0345 14.1405 15.2639 11.9077L23.69 3.48158C25.9227 1.25218 28.949 0 32.1042 0C35.2594 0 38.2857 1.25218 40.5184 3.48158C42.7478 5.71433 44 8.74058 44 11.8958C44 15.051 42.7478 18.0773 40.5184 20.31L36.9718 23.8566C36.9956 21.9048 36.6862 19.953 36.0197 18.0964L37.1385 16.9539C37.8057 16.2938 38.3355 15.5079 38.697 14.6417C39.0585 13.7756 39.2447 12.8463 39.2447 11.9077C39.2447 10.9691 39.0585 10.0398 38.697 9.17367C38.3355 8.30749 37.8057 7.52163 37.1385 6.86155C36.4784 6.19428 35.6925 5.66454 34.8263 5.30301C33.9602 4.94147 33.0309 4.75532 32.0923 4.75532C31.1537 4.75532 30.2244 4.94147 29.3583 5.30301C28.4921 5.66454 27.7062 6.19428 27.0462 6.86155L18.6438 15.2639C17.9766 15.9239 17.4468 16.7098 17.0853 17.576C16.7238 18.4422 16.5376 19.3714 16.5376 20.31C16.5376 21.2486 16.7238 22.1779 17.0853 23.0441C17.4468 23.9102 17.9766 24.6961 18.6438 25.3562ZM25.3562 15.2639C26.2845 14.3356 27.8078 14.3356 28.7361 15.2639C30.9655 17.4966 32.2177 20.5229 32.2177 23.6781C32.2177 26.8333 30.9655 29.8596 28.7361 32.0923L20.31 40.5184C18.0773 42.7478 15.051 44 11.8958 44C8.74058 44 5.71433 42.7478 3.48158 40.5184C1.25218 38.2857 0 35.2594 0 32.1042C0 28.949 1.25218 25.9227 3.48158 23.69L7.02817 20.1434C7.00437 22.0952 7.3138 24.047 7.98028 25.9274L6.86155 27.0462C6.19428 27.7062 5.66454 28.4921 5.30301 29.3583C4.94147 30.2244 4.75532 31.1537 4.75532 32.0923C4.75532 33.0309 4.94147 33.9602 5.30301 34.8263C5.66454 35.6925 6.19428 36.4784 6.86155 37.1385C7.52163 37.8057 8.30749 38.3355 9.17367 38.697C10.0398 39.0585 10.9691 39.2447 11.9077 39.2447C12.8463 39.2447 13.7756 39.0585 14.6417 38.697C15.5079 38.3355 16.2938 37.8057 16.9539 37.1385L25.3562 28.7361C26.0234 28.0761 26.5532 27.2902 26.9147 26.424C27.2763 25.5579 27.4624 24.6286 27.4624 23.69C27.4624 22.7514 27.2763 21.8221 26.9147 20.9559C26.5532 20.0898 26.0234 19.3039 25.3562 18.6438C25.125 18.4272 24.9407 18.1655 24.8147 17.8748C24.6888 17.5841 24.6238 17.2707 24.6238 16.9539C24.6238 16.637 24.6888 16.3236 24.8147 16.0329C24.9407 15.7422 25.125 15.4805 25.3562 15.2639Z" fill="white"/>
</svg>
