<svg width="60" height="59" viewBox="0 0 60 59" fill="none" xmlns="http://www.w3.org/2000/svg">
<path d="M1.80064 62.5316L22.0168 42.3155C23.8218 43.7595 25.8976 44.9027 28.2441 45.745C30.5906 46.5873 33.0875 47.0085 35.7349 47.0085C42.2931 47.0085 47.8429 44.7366 52.3843 40.1928C56.9257 35.649 59.1976 30.0992 59.2 23.5434C59.2 16.9851 56.9281 11.4353 52.3843 6.89391C47.8405 2.3525 42.2907 0.0805927 35.7349 0.078186C29.1767 0.078186 23.6269 2.3501 19.0854 6.89391C14.544 11.4377 12.2721 16.9875 12.2697 23.5434C12.2697 26.1907 12.6909 28.6876 13.5332 31.0342C14.3756 33.3807 15.5187 35.4564 16.9627 37.2614L-3.34365 57.5678C-4.00549 58.2297 -4.33641 59.0419 -4.33641 60.0046C-4.33641 60.9673 -3.9754 61.8096 -3.2534 62.5316C-2.59156 63.1935 -1.74923 63.5244 -0.726383 63.5244C0.296455 63.5244 1.1388 63.1935 1.80064 62.5316ZM35.7349 39.7885C31.2223 39.7885 27.3861 38.2085 24.2261 35.0485C21.0661 31.8885 19.4874 28.0535 19.4898 23.5434C19.4898 19.0308 21.0697 15.1946 24.2297 12.0346C27.3897 8.87461 31.2248 7.29583 35.7349 7.29824C40.2474 7.29824 44.0837 8.87823 47.2436 12.0382C50.4036 15.1982 51.9824 19.0332 51.98 23.5434C51.98 28.0559 50.4 31.8921 47.24 35.0521C44.0801 38.2121 40.245 39.7909 35.7349 39.7885Z" fill="#126E82"/>
</svg>
