<svg width="68" height="67" viewBox="0 0 68 67" fill="none" xmlns="http://www.w3.org/2000/svg">
<path d="M22.5899 2.9991C23.4508 3.98764 24.0702 5.16275 24.3991 6.43166C24.728 7.70057 24.7574 9.02856 24.4851 10.3108C26.4717 9.30567 28.6325 8.69027 30.8506 8.49788C34.2797 8.19816 37.7205 8.92266 40.7376 10.5796C48.5864 14.8879 55.0478 21.3398 59.3674 29.1822C60.5115 31.2517 61.2205 33.5332 61.4509 35.8867C61.6813 38.2402 61.4282 40.6159 60.7071 42.868C62.0286 43.1721 63.2549 43.7971 64.2775 44.6876L64.2864 44.6943C67.9746 47.9336 68.1524 53.5768 64.7219 56.9804C63.3967 58.309 61.6651 59.156 59.8028 59.3866C59.5807 61.1928 58.7808 62.9213 57.3944 64.3099C56.5783 65.1285 55.6023 65.7702 54.5272 66.195C53.4522 66.6198 52.3012 66.8186 51.1459 66.7789C49.9907 66.7393 48.856 66.4622 47.8125 65.9648C46.7691 65.4674 45.8393 64.7603 45.0812 63.8878V63.8834C44.188 62.8571 43.5621 61.6261 43.2593 60.2997C41.0085 61.0182 38.6351 61.2714 36.2834 61.0438C33.9317 60.8161 31.6509 60.1125 29.5797 58.9756C21.7427 54.6599 15.2911 48.2093 10.9744 40.373C9.22694 37.2149 8.50923 33.5899 8.92144 30.0042C9.15756 27.9439 9.76027 25.9425 10.7011 24.0944C9.41897 24.3659 8.09131 24.3358 6.82279 24.0065C5.55428 23.6773 4.3796 23.0578 3.39138 22.1971L3.38249 22.1904C2.51947 21.43 1.82128 20.501 1.33097 19.4605C0.840651 18.42 0.568585 17.2902 0.531533 16.1406C0.494482 14.991 0.693229 13.846 1.11553 12.7761C1.53783 11.7062 2.17474 10.7342 2.98701 9.91979C4.30361 8.5828 6.03449 7.73149 7.89719 7.50477C8.11937 5.71406 8.91477 3.97 10.3034 2.58142L10.3101 2.57475C11.1271 1.76609 12.1006 1.13278 13.1711 0.713644C14.2415 0.29451 15.3862 0.0983829 16.5351 0.137282C17.684 0.176181 18.8129 0.449286 19.8525 0.93986C20.8921 1.43043 21.8206 2.12814 22.5811 2.99022L22.5899 2.9991ZM43.5859 55.3986C43.8014 54.8209 44.077 54.2655 44.4147 53.7367C43.0051 54.7859 41.2928 55.3488 39.5356 55.3408C37.336 55.3408 35.292 54.4965 33.7367 52.9413C32.1814 51.3861 31.3372 49.3421 31.3372 47.1426C31.3372 44.9431 32.1814 42.8991 33.7367 41.3439L41.7352 33.3457C43.2904 31.7905 45.3345 30.9462 47.5341 30.9462C49.7114 30.9462 51.7777 31.8127 53.333 33.3457C54.8882 34.9009 55.7325 36.9449 55.7325 39.1444C55.7325 40.9329 55.1771 42.617 54.1328 44.0211C54.6616 43.6812 55.2259 43.4035 55.808 43.188C56.704 41.3288 57.1415 39.282 57.0839 37.219C57.0263 35.1561 56.4753 33.1369 55.477 31.3306C51.5646 24.2245 45.7112 18.3782 38.6002 14.4743C36.3533 13.2408 33.7907 12.7018 31.2372 12.9258C28.2032 13.1867 25.3577 14.5064 23.1987 16.6538L17.0443 22.8303C15.0592 24.8124 13.773 27.3866 13.3798 30.1641C12.9866 32.9416 13.5078 35.7716 14.8647 38.2268C18.7749 45.327 24.6194 51.1721 31.7193 55.0831C33.5302 56.0751 35.5515 56.6212 37.6156 56.676C39.6797 56.7309 41.7271 56.293 43.5882 55.3986H43.5859ZM12.2764 8.49344V8.53787C12.2164 10.3241 10.7766 11.8705 8.877 11.8838C7.8521 11.8942 6.8729 12.3095 6.15308 13.0391L6.13975 13.0546C4.52894 14.6632 4.58449 17.3115 6.32416 18.8578C7.04946 19.4822 7.97365 19.8274 8.93067 19.8315C9.88769 19.8355 10.8148 19.4982 11.5454 18.88C12.0393 18.4391 12.6528 18.1544 13.3085 18.0618C13.9641 17.9693 14.6324 18.0731 15.2291 18.3601L18.7462 14.8276C18.4609 14.2315 18.3583 13.5644 18.4512 12.9101C18.5441 12.2559 18.8284 11.6437 19.2684 11.1506C19.8865 10.4201 20.2239 9.49299 20.2198 8.536C20.2157 7.57901 19.8705 6.65484 19.2461 5.92956C18.8865 5.52179 18.4475 5.19162 17.956 4.95924C17.4645 4.72685 16.9307 4.59713 16.3873 4.578C15.844 4.55887 15.3024 4.65073 14.7958 4.84797C14.2891 5.04521 13.828 5.34369 13.4406 5.72517C12.6696 6.49833 12.2852 7.49144 12.2719 8.49344H12.2764ZM44.3769 40.8929L41.2886 43.9811C41.2774 43.992 41.2687 44.0052 41.2629 44.0198C41.2572 44.0343 41.2546 44.0499 41.2553 44.0655C41.2553 44.1033 41.2686 44.1322 41.2886 44.15L48.3761 51.2373C48.9569 51.816 49.2951 52.5943 49.3219 53.4137C49.3488 54.2331 49.0622 55.0319 48.5205 55.6474C47.1675 57.2115 47.1586 59.4977 48.4361 60.9707C48.7941 61.3831 49.2333 61.7174 49.7263 61.9525C50.2193 62.1876 50.7555 62.3185 51.3014 62.337C51.8472 62.3556 52.3911 62.2614 52.8989 62.0603C53.4067 61.8592 53.8676 61.5556 54.2528 61.1684C54.9921 60.4393 55.413 59.4473 55.4237 58.409C55.4348 56.5072 56.9834 55.0675 58.7719 55.0098L58.7941 55.0075H58.8164C59.8162 54.992 60.8138 54.6076 61.5847 53.8367L61.5914 53.83C63.1755 52.2593 63.1333 49.5999 61.3625 48.038C59.8895 46.7627 57.6077 46.7738 56.0436 48.1269C55.4275 48.6695 54.6276 48.9565 53.8071 48.9292C52.9866 48.902 52.2075 48.5625 51.6288 47.9802L44.5413 40.8929C44.5304 40.8817 44.5172 40.873 44.5027 40.8672C44.4881 40.8615 44.4725 40.8589 44.4569 40.8596C44.4416 40.8592 44.4264 40.8619 44.4123 40.8677C44.3982 40.8734 44.3876 40.882 44.3769 40.8929Z" fill="#F9A04F"/>
</svg>
