<svg width="59" height="58" viewBox="0 0 59 58" fill="none" xmlns="http://www.w3.org/2000/svg">
<path d="M20.1776 2.49456C20.9268 3.35479 21.4657 4.37736 21.752 5.48157C22.0382 6.58577 22.0638 7.74139 21.8268 8.8572C23.5556 7.98252 25.4359 7.44701 27.366 7.27959C30.35 7.01878 33.3443 7.64923 35.9697 9.09114C42.7997 12.8401 48.4224 18.4546 52.1813 25.279C53.1769 27.0799 53.7939 29.0653 53.9944 31.1133C54.1949 33.1613 53.9746 35.2287 53.3471 37.1884C54.4971 37.4531 55.5642 37.9969 56.4541 38.7719L56.4619 38.7777C59.6713 41.5965 59.826 46.5072 56.8408 49.4691C55.6876 50.6251 54.1808 51.3622 52.5603 51.5629C52.3669 53.1347 51.6709 54.6388 50.4644 55.8472C49.7542 56.5595 48.9049 57.1179 47.9694 57.4875C47.0339 57.8572 46.0323 58.0302 45.027 57.9957C44.0217 57.9612 43.0343 57.7201 42.1263 57.2872C41.2183 56.8544 40.4092 56.2391 39.7495 55.4798V55.476C38.9722 54.5829 38.4276 53.5117 38.1641 52.3575C36.2055 52.9827 34.1401 53.203 32.0937 53.005C30.0472 52.8069 28.0625 52.1945 26.2601 51.2052C19.4404 47.4497 13.8262 41.8364 10.0698 35.0173C8.54917 32.2691 7.92462 29.1147 8.28333 25.9944C8.4888 24.2015 9.01328 22.4599 9.83198 20.8517C8.71628 21.0879 7.56095 21.0617 6.45709 20.7752C5.35323 20.4887 4.33102 19.9496 3.47108 19.2006L3.46335 19.1948C2.71234 18.5331 2.10478 17.7247 1.67811 16.8193C1.25144 15.9138 1.01468 14.9307 0.982443 13.9303C0.9502 12.9299 1.12315 11.9335 1.49064 11.0025C1.85812 10.0715 2.41236 9.2256 3.1192 8.51693C4.2649 7.35349 5.7711 6.61268 7.39203 6.41539C7.58537 4.85711 8.27753 3.33943 9.4859 2.13109L9.4917 2.12529C10.2027 1.42159 11.0499 0.870486 11.9813 0.505757C12.9128 0.141028 13.909 -0.029642 14.9087 0.00420775C15.9085 0.0380575 16.8908 0.275714 17.7955 0.70261C18.7002 1.12951 19.5082 1.73665 20.1699 2.48683L20.1776 2.49456ZM38.4483 48.0925C38.6359 47.5898 38.8756 47.1065 39.1695 46.6464C37.9428 47.5594 36.4528 48.0492 34.9237 48.0422C33.0097 48.0422 31.2309 47.3076 29.8775 45.9542C28.5242 44.6009 27.7895 42.8222 27.7895 40.9082C27.7895 38.9942 28.5242 37.2155 29.8775 35.8622L36.8378 28.9021C38.1912 27.5488 39.9699 26.8141 41.884 26.8141C43.7787 26.8141 45.5768 27.5681 46.9302 28.9021C48.2836 30.2555 49.0183 32.0341 49.0183 33.9482C49.0183 35.5045 48.5349 36.97 47.6262 38.1919C48.0864 37.896 48.5774 37.6544 49.084 37.4668C49.8636 35.849 50.2443 34.0679 50.1942 32.2727C50.1441 30.4775 49.6646 28.7204 48.7959 27.1486C45.3914 20.9649 40.2977 15.8774 34.1098 12.4803C32.1545 11.4068 29.9245 10.9378 27.7025 11.1327C25.0623 11.3598 22.5861 12.5082 20.7074 14.3769L15.3519 19.7516C13.6244 21.4764 12.5051 23.7165 12.163 26.1335C11.8208 28.5505 12.2744 31.0132 13.4552 33.1497C16.8578 39.3283 21.9437 44.4147 28.122 47.818C29.6978 48.6812 31.4568 49.1564 33.2529 49.2042C35.0491 49.2519 36.8308 48.8708 38.4503 48.0925H38.4483ZM11.2028 7.27573V7.31439C11.1506 8.8688 9.89772 10.2144 8.24466 10.226C7.35279 10.235 6.50069 10.5964 5.8743 11.2313L5.8627 11.2449C4.46098 12.6446 4.50932 14.9492 6.02317 16.2948C6.65433 16.8381 7.45857 17.1385 8.29136 17.1421C9.12416 17.1456 9.93092 16.852 10.5667 16.3141C10.9965 15.9304 11.5304 15.6827 12.1009 15.6021C12.6714 15.5216 13.253 15.6119 13.7723 15.8617L16.8328 12.7877C16.5846 12.269 16.4952 11.6885 16.5761 11.1191C16.6569 10.5498 16.9043 10.0171 17.2872 9.58801C17.8251 8.95227 18.1187 8.14553 18.1152 7.31276C18.1116 6.47999 17.8112 5.67578 17.2679 5.04464C16.9549 4.6898 16.5729 4.40249 16.1452 4.20027C15.7175 3.99805 15.253 3.88516 14.7801 3.86851C14.3073 3.85187 13.836 3.93181 13.3952 4.10345C12.9543 4.27508 12.553 4.53482 12.2159 4.86678C11.545 5.53958 11.2105 6.40379 11.1989 7.27573H11.2028ZM39.1366 35.4697L36.4492 38.1571C36.4394 38.1666 36.4318 38.178 36.4268 38.1907C36.4218 38.2034 36.4196 38.2169 36.4202 38.2305C36.4202 38.2634 36.4318 38.2885 36.4492 38.304L42.6167 44.4714C43.1221 44.975 43.4164 45.6523 43.4398 46.3653C43.4631 47.0784 43.2137 47.7735 42.7424 48.309C41.565 49.6701 41.5572 51.6595 42.6689 52.9413C42.9805 53.3003 43.3627 53.5911 43.7917 53.7957C44.2207 54.0003 44.6873 54.1142 45.1623 54.1304C45.6373 54.1465 46.1105 54.0645 46.5524 53.8896C46.9943 53.7146 47.3954 53.4504 47.7306 53.1134C48.3739 52.4789 48.7402 51.6157 48.7495 50.7122C48.7592 49.0573 50.1068 47.8044 51.6632 47.7542L51.6825 47.7522H51.7018C52.5719 47.7387 53.44 47.4042 54.1108 46.7334L54.1166 46.7276C55.4952 45.3607 55.4584 43.0465 53.9175 41.6873C52.6357 40.5776 50.65 40.5873 49.2889 41.7647C48.7529 42.2369 48.0568 42.4866 47.3428 42.4629C46.6288 42.4392 45.9508 42.1438 45.4473 41.6371L39.2797 35.4697C39.2702 35.46 39.2587 35.4524 39.2461 35.4474C39.2334 35.4424 39.2198 35.4401 39.2062 35.4407C39.1929 35.4404 39.1797 35.4428 39.1674 35.4478C39.1551 35.4527 39.1459 35.4602 39.1366 35.4697Z" fill="#F9B94F"/>
</svg>
